<svg width="20" height="20" viewBox="0 0 20 20" fill="none" xmlns="http://www.w3.org/2000/svg">
    <path fill-rule="evenodd" clip-rule="evenodd" d="m14.427 13.248 2.829 2.83a.832.832 0 1 1-1.178 1.178l-2.83-2.83a6.626 6.626 0 0 1-4.081 1.407A6.674 6.674 0 0 1 2.5 9.167 6.674 6.674 0 0 1 9.167 2.5a6.674 6.674 0 0 1 6.666 6.667c0 1.538-.529 2.952-1.406 4.08zm-5.26-9.081c-2.758 0-5 2.242-5 5 0 2.757 2.242 5 5 5 2.757 0 5-2.243 5-5 0-2.758-2.243-5-5-5z" fill="#000"/>
    <mask id="j7p58fjj6a" style="mask-type:alpha" maskUnits="userSpaceOnUse" x="2" y="2" width="16" height="16">
        <path fill-rule="evenodd" clip-rule="evenodd" d="m14.427 13.248 2.829 2.83a.832.832 0 1 1-1.178 1.178l-2.83-2.83a6.626 6.626 0 0 1-4.081 1.407A6.674 6.674 0 0 1 2.5 9.167 6.674 6.674 0 0 1 9.167 2.5a6.674 6.674 0 0 1 6.666 6.667c0 1.538-.529 2.952-1.406 4.08zm-5.26-9.081c-2.758 0-5 2.242-5 5 0 2.757 2.242 5 5 5 2.757 0 5-2.243 5-5 0-2.758-2.243-5-5-5z" fill="#fff"/>
    </mask>
</svg>
